<svg height="512pt" viewBox="0 0 512 512" width="512pt" xmlns="http://www.w3.org/2000/svg" xmlns:xlink="http://www.w3.org/1999/xlink"><linearGradient id="a" gradientTransform="matrix(1 0 0 -1 0 -15158)" gradientUnits="userSpaceOnUse" x1="0" x2="512" y1="-15414" y2="-15414"><stop offset="0" stop-color="#00f38d"/><stop offset="1" stop-color="#009eff"/></linearGradient><path d="m512 256c0 141.386719-114.613281 256-256 256s-256-114.613281-256-256 114.613281-256 256-256 256 114.613281 256 256zm0 0" fill="url(#a)"/><path d="m392.523438 159.398438-.175782-.6875c15.167969-9.09375 27.414063-24.082032 32.863282-41.253907-14.207032 8.449219-30.832032 14.863281-47.546876 18.179688-13.40625-14.28125-31.292968-23.074219-52.441406-23.074219-40.539062 0-74.117187 32.820312-74.117187 73.417969 0 5.777343.816406 11.429687 2.097656 16.78125v.699219c-60.417969-3.453126-115.121094-34.179688-151.03125-78.3125-6.300781 10.855468-9.789063 26.375-9.789063 39.855468 0 20.976563 12.457032 49.070313 32.164063 62.226563v1.398437c-11.769531-.472656-23.820313-8.582031-33.5625-13.984375 0 .324219.425781.707031.425781 1.03125 0 35.625 26.113282 66.347657 59.707032 73.085938-5.855469 1.550781-14.101563 2.796875-20.277344 2.796875-4.753906 0-9.496094-1.242188-13.984375-2.097656 9.347656 29.207031 36.359375 48.246093 68.523437 48.246093v.699219c-25.035156 19.410156-56.769531 32.863281-90.898437 32.863281-5.925781 0-13.285157-.699219-17.480469-1.398437 32.472656 20.863281 71.078125 33.5625 112.574219 33.5625 135.070312 0 209.066406-111.175782 209.066406-208.367188v-9.789062c14.367187-10.375 26.53125-24.390625 36.359375-39.15625 0 .003906-25.777344 12.21875-42.476562 13.277344zm-21.851563 35.671874c0 20.984376-4.109375 43.019532-11.886719 63.726563-8.171875 21.761719-19.933594 41.394531-34.960937 58.359375-23.566407 26.601562-65.984375 58.3125-134.25 58.3125-2.007813 0-4.007813-.035156-6.011719-.105469 6.589844-3.824219 12.925781-8.078125 18.953125-12.75l10.832031-8.398437v-44.472656l-11.523437-.128907c-12.597657-.140625-22.738281-10.394531-22.738281-22.992187v-22.867188l-15.125-3.417968c-6.691407-1.511719-11.445313-7.457032-11.445313-14.316407v-19.484375l-.351563-14.257812-12.4375-8.304688c-5.371093-4.519531-10.238281-10.972656-13.707031-17.957031 36.703125 26.765625 80.289063 42.78125 125.589844 45.367187l29.5625 1.691407v-33.617188l-.769531-3.210937c-.882813-3.679688-1.328125-7.132813-1.328125-10.265625 0-12.042969 4.804687-23.414063 13.527343-32.019531 8.78125-8.660157 20.363282-13.429688 32.621094-13.429688 12.390625 0 23.175782 4.792969 32.046875 14.246094l7.136719 7.605468.863281 3.335938.179688.6875 5.222656 20.191406zm0 0" fill="#fff"/></svg>