<svg id="Capa_1" enable-background="new 0 0 512 512" height="512" viewBox="0 0 512 512" width="512" xmlns="http://www.w3.org/2000/svg"><g><g><path d="m512 256c0 62.59-22.47 119.93-59.77 164.41-119.7-76.29-272.75-76.29-392.45 0l-.01-.01c-11.48-13.67-21.55-28.56-29.98-44.46-16.35-30.76-26.61-65.26-29.16-101.88-.42-5.96-.63-11.99-.63-18.06 0-46.22 12.25-89.57 33.68-127 44.12-77.07 127.16-129 222.32-129s178.2 51.93 222.32 129c12.98 22.67 22.59 47.52 28.15 73.86 3.46 16.36 5.35 33.28 5.52 50.62.01.84.01 1.68.01 2.52z" fill="#4b4a59"/><path d="m512 256c0 47.56-12.97 92.09-35.58 130.25-7.13 12.05-15.23 23.47-24.19 34.14l-.01.01c-119.7-76.28-272.75-76.28-392.45.02-8.72-10.4-16.63-21.51-23.63-33.22-22.95-38.37-36.14-83.25-36.14-131.2 0-46.22 12.25-89.57 33.68-127 9.61 16.79 21.07 32.39 34.11 46.52 36.01 39.05 84.03 66.87 138.2 77.59 16.17 3.21 32.9 4.89 50.01 4.89s33.84-1.68 50.01-4.89c54.17-10.72 102.19-38.54 138.2-77.59 13.04-14.13 24.5-29.73 34.11-46.52 21.43 37.43 33.68 80.78 33.68 127z" fill="#383649"/><g><g><path d="m400.15 173.61v11.78l-144.15 121.73-144.15-121.73v-11.78z" fill="#fff"/><g><path d="m256 351.77 153.15-123.06v221.794c0 6.786-3.303 13.178-8.909 17.004-.03.021-.061.042-.091.062-40.85 27.9-90.2 44.27-143.36 44.43h-.79c-53.485 0-103.136-16.401-144.204-44.454-5.618-3.838-8.946-10.233-8.946-17.036v-221.8z" fill="#fff"/><path d="m256 351.77 153.15-123.06v221.794c0 6.786-3.303 13.178-8.909 17.004-.03.021-.061.042-.091.062-40.85 27.9-90.2 44.27-143.36 44.43h-.79z" fill="#d1f6ff"/></g><path d="m400.15 173.61v11.78l-144.15 121.73v-133.51z" fill="#d1f6ff"/><path d="m256 363.32-144.15-115.83v220.09c-19.46-13.27-36.98-29.16-52.08-47.16v-231.34c0-5.85 3.24-10.94 8.02-13.56 2.21-1.22 4.75-1.91 7.45-1.91h36.61l94.14 79.5 50.01 42.23 2.63 4.11c12.64 19.73 11.59 45.25-2.63 63.87z" fill="#eb4133"/></g><path d="m452.23 189.08v231.33c-2.31 2.76-4.69 5.48-7.12 8.14-13.4 14.68-28.49 27.79-44.96 39.02v-220.08l-144.15 115.83v-67.98l144.15-121.73h36.61c8.55 0 15.47 6.92 15.47 15.47z" fill="#ce2d49"/></g></g><path d="" fill="#fff"/></g></svg>