<?xml version="1.0" encoding="iso-8859-1"?>
<!-- Generator: Adobe Illustrator 19.0.0, SVG Export Plug-In . SVG Version: 6.00 Build 0)  -->
<svg version="1.1" id="Layer_1" xmlns="http://www.w3.org/2000/svg" xmlns:xlink="http://www.w3.org/1999/xlink" x="0px" y="0px"
	 viewBox="0 0 473.931 473.931" style="enable-background:new 0 0 473.931 473.931;" xml:space="preserve">
<circle style="fill:#527FA2;" cx="236.966" cy="236.966" r="236.966"/>
<path style="fill:#467593;" d="M404.518,69.38c92.549,92.549,92.552,242.593,0,335.142c-92.541,92.541-242.593,92.545-335.138,0
	L404.518,69.38z"/>
<path style="fill:#416B82;" d="M472.876,258.922L342.719,128.765l-8.647,8.647l-16.969-16.973l-15.671,15.67l-14.267-14.267
	l-55.898,55.902l-59.498-59.505l-5.803,5.803l4.209,4.209l-2.615,2.616l-12.161-12.161l-6.035,6.035l5.613,5.613l-5.422,5.422
	l-10.526-10.526l-12.584,12.584l11.461,11.461l-11.461,11.461l3.977,3.977l-3.977,3.977l9.59,9.59l-19.412,19.412l47.341,47.337
	l-9.904,9.901l31.24,31.236l-57.922,57.919l128.975,128.975C370.887,463.787,462.377,373.106,472.876,258.922z"/>
<g>
	<path style="fill:#FFFFFF;" d="M358.689,204.966c-23.023,0-46.057,0-69.08,0c26.959,44.418-3.918,102.861-59.636,97.424
		c-34.039-3.319-65.181-39.902-51.371-81.481c0.868-2.63,2.72-5.5,4.131-8.266c1.34-2.63,3.6-5.714,2.952-7.678
		c-22.638,0-68.493,0-68.493,0v113.959c2.297,22.29,19.828,39.809,42.51,41.919h78.528h78.532
		c22.724-2.342,39.67-21.257,41.919-41.328C358.689,319.516,358.689,224.749,358.689,204.966z"/>
	<path style="fill:#FFFFFF;" d="M231.746,193.748c-9.28,1.115-14.267,3.121-18.9,5.904c-10.638,6.387-20.647,18.297-22.436,34.245
		c-3.618,32.194,20,54.323,47.236,54.323c21.698,0,48.097-15.502,47.827-47.823C285.227,210.964,261.744,190.141,231.746,193.748z
		 M272.486,249.837c-3.955,16.292-22.035,28.613-40.74,25.979c-17.882-2.514-37.1-24.737-26.578-49.593
		c3.876-9.149,12.617-19.412,30.705-20.666C258.092,204.016,278.78,223.873,272.486,249.837z"/>
	<path style="fill:#FFFFFF;" d="M345.11,131.751c-6.511-6.511-17.167-12.482-28.931-13.579h-78.293h-0.217h-56.1v61.414H171.53
		v-61.414h-6.196v61.414h-10.047v-60.83c-2.223,0.423-4.4,1.007-6.492,1.729v59.101h-10.039v-54.33
		c-3.195,1.972-6.013,4.198-8.314,6.492c-13.351,13.354-14.424,36.314-13.579,65.544h74.989c3.042-0.707,6.694-4.464,9.448-6.496
		c10.103-7.439,23.098-11.498,36.288-11.641h0.374c13.19,0.142,26.189,4.202,36.288,11.641c2.758,2.032,6.402,5.789,9.444,6.496
		h74.989C359.026,167.773,358.468,145.105,345.11,131.751z M334.813,171.582c0,3.442-2.788,6.23-6.223,6.23h-25.942
		c-3.435,0-6.223-2.788-6.223-6.23v-25.934c0-3.439,2.788-6.223,6.223-6.223h25.942c3.435,0,6.223,2.784,6.223,6.223V171.582z"/>
</g>
<g>
</g>
<g>
</g>
<g>
</g>
<g>
</g>
<g>
</g>
<g>
</g>
<g>
</g>
<g>
</g>
<g>
</g>
<g>
</g>
<g>
</g>
<g>
</g>
<g>
</g>
<g>
</g>
<g>
</g>
</svg>
