<?xml version="1.0" encoding="utf-8"?>
<!-- Generator: Adobe Illustrator 15.0.0, SVG Export Plug-In . SVG Version: 6.00 Build 0)  -->
<!DOCTYPE svg PUBLIC "-//W3C//DTD SVG 1.1//EN" "http://www.w3.org/Graphics/SVG/1.1/DTD/svg11.dtd">
<svg version="1.1" id="Layer_1" xmlns="http://www.w3.org/2000/svg" xmlns:xlink="http://www.w3.org/1999/xlink" x="0px" y="0px"
	 width="1000.308px" height="300.5px" viewBox="93.692 0 1000.308 300.5" enable-background="new 93.692 0 1000.308 300.5"
	 xml:space="preserve">
<g>
	<polygon fill="#FFFFFF" stroke="#FFFFFF" stroke-miterlimit="10" points="368.877,298.109 240.659,224.082 240.658,76.027 
		368.878,6 497.098,76.027 497.096,224.082 	"/>
	<g>
		<polygon fill="#008445" points="368.75,21.271 334.427,41.087 368.75,60.904 403.07,41.087 		"/>
		<polygon fill="#008445" points="330.614,43.288 296.293,63.105 330.614,82.921 364.935,63.105 		"/>
		<polygon fill="#008445" points="406.885,43.288 372.564,63.105 406.885,82.921 441.207,63.105 		"/>
		<polygon fill="#008445" points="445.02,65.306 410.699,85.122 445.02,104.939 479.342,85.122 		"/>
		<polygon fill="#008445" points="292.479,65.306 258.158,85.122 292.479,104.939 326.801,85.122 		"/>
		<polygon fill="#C3DD89" points="256.251,216.127 290.572,235.941 290.574,196.309 256.251,176.494 		"/>
		<polygon fill="#C3DD89" points="294.387,238.143 328.709,257.959 328.711,218.326 294.387,198.512 		"/>
		<polygon fill="#C3DD89" points="256.251,172.092 290.574,191.904 290.574,152.275 256.253,132.46 		"/>
		<polygon fill="#C3DD89" points="256.253,128.056 290.574,147.869 290.575,108.239 256.253,88.425 		"/>
		<polygon fill="#C3DD89" points="332.523,260.16 366.844,279.977 366.845,240.344 332.523,220.529 		"/>
		<polygon fill="#1F3E7C" points="481.251,216.127 446.93,235.941 446.93,196.309 481.251,176.494 		"/>
		<polygon fill="#1F3E7C" points="443.117,238.143 408.796,257.959 408.794,218.326 443.117,198.512 		"/>
		<polygon fill="#1F3E7C" points="481.251,172.092 446.93,191.904 446.928,152.275 481.251,132.46 		"/>
		<polygon fill="#1F3E7C" points="481.251,128.056 446.93,147.869 446.928,108.241 481.251,88.427 		"/>
		<polygon fill="#1F3E7C" points="404.982,260.16 370.66,279.977 370.658,240.344 404.982,220.529 		"/>
		<polygon fill="#008445" points="368.752,237.043 403.073,217.229 368.752,197.41 334.43,217.229 		"/>
		<polygon fill="#008445" points="406.886,215.025 441.208,195.211 406.886,175.393 372.565,195.211 		"/>
		<polygon fill="#008445" points="330.617,215.025 364.939,195.211 330.617,175.393 296.296,195.211 		"/>
		<polygon fill="#C3DD89" points="443.114,108.239 408.792,88.425 408.792,128.056 443.114,147.869 		"/>
		<polygon fill="#C3DD89" points="404.979,86.224 370.657,66.407 370.656,106.038 404.979,125.855 		"/>
		<polygon fill="#C3DD89" points="443.114,152.275 408.792,132.46 408.792,172.092 443.114,191.904 		"/>
		<polygon fill="#1F3E7C" points="294.385,108.241 328.707,88.427 328.709,128.056 294.385,147.869 		"/>
		<polygon fill="#1F3E7C" points="332.521,86.224 366.844,66.407 366.844,106.038 332.521,125.855 		"/>
		<polygon fill="#1F3E7C" points="294.385,152.275 328.707,132.46 328.709,172.092 294.385,191.904 		"/>
		<polygon fill="#1F3E7C" points="404.977,172.092 404.977,132.46 370.656,152.277 370.656,191.906 		"/>
		<polygon fill="#C3DD89" points="332.521,172.092 366.842,191.906 366.842,152.277 332.521,132.46 		"/>
		<polygon fill="#008445" points="368.75,109.343 334.427,129.157 368.75,148.975 403.07,129.157 		"/>
	</g>
	<g>
		<path fill="#1F3E7C" d="M565.453,86.525h25.568l54.02,126.938h-28.992l-11.523-28.27H551.23l-11.525,28.27h-28.27L565.453,86.525z
			 M594.621,160.705l-16.746-40.87l-16.744,40.87H594.621z"/>
		<path fill="#1F3E7C" d="M643.408,165.75v-0.361c0-27.729,22.324-50.234,52.396-50.234c29.891,0,52.033,22.145,52.033,49.875v0.359
			c0,27.729-22.324,50.236-52.395,50.236C665.557,215.625,643.408,193.479,643.408,165.75z M720.832,165.75v-0.361
			c0-14.223-10.266-26.647-25.389-26.647c-15.668,0-25.025,12.065-25.025,26.288v0.359c0,14.228,10.264,26.646,25.387,26.646
			C711.471,192.035,720.832,179.975,720.832,165.75z"/>
		<path fill="#1F3E7C" d="M757.014,87.423h51.498c30.072,0,48.258,17.826,48.258,43.574v0.361c0,29.167-22.689,44.292-50.959,44.292
			h-21.063v37.813h-27.732V87.423H757.014z M806.713,150.984c13.865,0,21.965-8.283,21.965-19.086v-0.359
			c0-12.424-8.643-19.086-22.506-19.086h-21.426v38.531H806.713L806.713,150.984z"/>
		<path fill="#1F3E7C" d="M858.744,195.098l16.383-19.625c11.344,9.361,23.229,15.305,37.635,15.305
			c11.342,0,18.182-4.502,18.182-11.885v-0.358c0-7.022-4.316-10.625-25.387-16.025c-25.389-6.481-41.771-13.504-41.771-38.528
			v-0.361c0-22.867,18.361-37.992,44.111-37.992c18.367,0,34.033,5.76,46.816,16.023l-14.406,20.889
			c-11.162-7.742-22.146-12.426-32.768-12.426c-10.625,0-16.207,4.863-16.207,10.986v0.359c0,8.281,5.4,10.982,27.188,16.564
			c25.566,6.66,39.975,15.842,39.975,37.813v0.357c0,25.031-19.086,39.074-46.275,39.074
			C893.135,215.266,873.869,208.602,858.744,195.098z"/>
	</g>
</g>
</svg>
