<svg xmlns="http://www.w3.org/2000/svg" xmlns:xlink="http://www.w3.org/1999/xlink" width="543" height="205" version="1.1" viewBox="0 0 543 205"><title>logo-darkbackground</title><desc>Created with Sketch.</desc><defs><polygon id="path-1" points="0 .197 166.082 .197 166.082 126.401 0 126.401"/><polygon id="path-3" points=".365 .201 26.587 .201 26.587 37.174 .365 37.174"/></defs><g id="Brand-Guidelines" fill="none" fill-rule="evenodd" stroke="none" stroke-width="1" transform="translate(-449.000000, -760.000000)"><g id="logo-darkbackground" transform="translate(449.000000, 760.000000)"><rect id="Rectangle" width="543" height="205" x="0" y="0" fill="#303030"/><g id="Page-1" transform="translate(40.000000, 39.000000)"><g id="Group-3" transform="translate(0.000000, 0.401967)"><mask id="mask-2" fill="#fff"><use xlink:href="#path-1"/></mask><path id="Fill-1" fill="#12739E" d="M127.519445,2.20177264 C126.224687,0.909008491 124.501945,0.196730189 122.669955,0.196730189 L43.4093909,0.196730189 C41.5774013,0.196730189 39.855259,0.909008491 38.5593004,2.20177264 L2.00534437,38.686716 C-0.668208021,41.3555132 -0.668208021,45.6974755 2.00474411,48.3662726 L78.1877816,124.396141 C79.4837402,125.688905 81.2052823,126.401183 83.0372719,126.401183 C84.8692616,126.401183 86.5908036,125.688905 87.8867622,124.396141 L164.074002,48.3662726 C165.36876,47.0735085 166.082467,45.3548151 166.082467,43.5264943 C166.082467,41.6987726 165.36936,39.9800792 164.074002,38.686716 L127.519445,2.20177264 Z" mask="url(#mask-2)"/></g><path id="Fill-4" fill="#FFF" d="M113.637142,48.4392377 C113.637142,55.9196575 113.60953,63.4006764 113.663553,70.8804972 C113.674958,72.4985491 113.062094,72.4811764 110.882554,72.4811764 C106.711957,72.4811764 103.110404,72.4650019 99.2135245,72.4650019 C97.1720445,72.4650019 96.5231648,72.5896057 96.5267664,71.1069406 C96.5591803,58.2188368 96.5339695,45.330733 96.5849915,32.4426292 C96.5879928,31.7261575 96.9625542,30.862917 97.4487638,30.323167 C99.0880704,28.502634 100.815615,26.7545868 102.604986,25.0808226 C103.138616,24.5812094 103.840919,24.3038462 104.572034,24.2744925 C107.051703,24.1750491 109.538575,24.2852755 112.020045,24.2127896 C113.272184,24.1756481 113.664153,24.6339264 113.65755,25.8625915 C113.616132,33.3879406 113.637142,40.9138887 113.637142,48.4392377"/><path id="Fill-6" fill="#FFF" d="M92.9653113,35.7649373 C93.3134613,35.4534278 93.8693009,35.6828665 93.895112,36.1489325 C93.9071172,36.3723807 93.9149206,36.5604844 93.9149206,36.7485882 C93.9191224,42.471975 93.9515364,48.1965599 93.8777045,53.9193476 C93.8681004,54.6340222 93.4593242,55.6458288 92.9653113,56.1622156 C90.2575441,58.9945552 87.4243229,61.7064844 84.6871431,64.5112675 C83.9188119,65.2990269 83.4175959,65.353541 82.6072466,64.5400222 C72.8914587,54.7963665 63.134253,45.0940458 53.4340719,35.3360127 C52.8956398,34.7944656 52.5180771,33.8671259 52.4802608,33.0985363 C52.3590085,30.6705599 52.4658546,28.2323995 52.4214354,25.7996307 C52.4052285,24.9052392 53.1291405,24.1977533 54.0253268,24.2181212 C56.4647783,24.2720363 58.907231,24.2708382 61.3460823,24.2169231 C62.3827291,24.194159 63.1270499,24.5577863 63.8467602,25.2808476 C69.9910085,31.4499325 76.1628688,37.5914608 82.3281263,43.7401778 C84.060473,45.467258 83.5076347,44.8801825 86.7070137,42.0676118 C88.6428481,40.365692 90.4304186,38.5020269 92.141156,36.5748618 C92.4076709,36.2747344 92.6441728,36.0518854 92.9653113,35.7649373"/><path id="Fill-8" fill="#FFF" d="M52.5096735,40.8277443 C52.5793035,40.3934283 53.1009283,39.0934755 53.4310706,39.385216 C53.677777,39.6038717 53.8722608,39.7775981 54.0571405,39.9603104 C58.9066308,44.7449755 63.7753294,49.5116689 68.5683953,54.3514472 C69.0954225,54.8834094 69.5450163,57.0424094 69.560623,57.7906311 C69.6554639,62.2056783 69.5678261,66.6249189 69.6314536,71.0417632 C69.6488611,72.2554519 69.2322815,72.5687585 68.0671793,72.5543811 C63.3713552,72.4968717 58.6737304,72.4974708 53.9773061,72.553183 C52.768385,72.5675604 52.4160331,72.1164708 52.4190344,70.9734708 C52.4460461,61.1483434 52.4322401,51.322617 52.4424445,41.4974896 C52.4424445,41.289617 52.4688559,41.0823434 52.5096735,40.8277443"/><path id="Fill-10" fill="#FFF" d="M270.927439,0.619664151 L272.728816,0.619664151 C273.449126,0.619664151 273.929333,1.09890943 273.929333,1.81777736 L273.929333,58.8629425 C273.929333,59.5818104 273.449126,60.0610557 272.728816,60.0610557 L267.229245,60.0610557 C266.508334,60.0610557 266.028127,59.5818104 266.028127,58.8629425 L266.028127,18.3798953 L243.813152,50.4737538 C243.284324,51.216584 242.612034,51.1446972 242.155838,50.4737538 L219.940262,18.3798953 L219.940262,58.8629425 C219.940262,59.5818104 219.460055,60.0610557 218.739744,60.0610557 L213.240174,60.0610557 C212.519263,60.0610557 212.039056,59.5818104 212.039056,58.8629425 L212.039056,1.81777736 C212.039056,1.09890943 212.519263,0.619664151 213.240174,0.619664151 L215.01694,0.619664151 C215.593788,0.619664151 216.098006,0.883249057 216.506182,1.43438113 L242.972189,38.3218906 L269.462208,1.43438113 C269.846373,0.883249057 270.351191,0.619664151 270.927439,0.619664151"/><path id="Fill-12" fill="#FFF" d="M326.455874,38.1060505 L315.912929,13.7783618 L304.625064,38.1060505 L326.455874,38.1060505 Z M343.579455,60.0608759 L336.975408,60.0608759 C336.350539,60.0608759 335.870332,59.8212533 335.606218,59.1742722 L329.217664,44.4338854 L301.695201,44.4338854 L294.850451,59.1742722 C294.586337,59.7493665 294.13014,60.0608759 293.481261,60.0608759 L287.621535,60.0608759 C286.756562,60.0608759 286.252345,59.5337061 286.660521,58.6471024 L313.751398,1.50668726 C313.991501,0.930993868 314.471708,0.619484434 315.119988,0.619484434 L317.041416,0.619484434 C317.665685,0.619484434 318.146492,0.930993868 318.410606,1.50668726 L344.468438,58.6471024 C344.852603,59.5337061 344.444427,60.0608759 343.579455,60.0608759 Z"/><path id="Fill-14" fill="#FFF" d="M403.430713,60.0611156 L396.345859,60.0611156 C395.76961,60.0611156 395.289403,59.917342 394.856617,59.4141344 L368.414619,30.3401203 L394.640524,2.22579481 C395.0493,1.72198821 395.553517,1.57821462 396.129766,1.57821462 L402.662381,1.57821462 C403.670816,1.57821462 404.078992,2.20123349 403.358682,3.01654953 L378.285874,29.9567241 L404.127013,58.6227807 C404.799903,59.3422476 404.463158,60.0611156 403.430713,60.0611156 M365.580198,2.77692689 L365.580198,58.8630024 C365.580198,59.5099835 365.027359,60.0611156 364.37908,60.0611156 L358.879509,60.0611156 C358.23063,60.0611156 357.678392,59.5099835 357.678392,58.8630024 L357.678392,2.77692689 C357.678392,2.12994575 358.23063,1.57821462 358.879509,1.57821462 L364.37908,1.57821462 C365.027359,1.57821462 365.580198,2.12994575 365.580198,2.77692689"/><path id="Fill-16" fill="#FFF" d="M463.28029,54.5483571 L463.28029,58.8627627 C463.28029,59.5816307 462.800083,60.0608759 462.079772,60.0608759 L423.124781,60.0608759 L419.882784,60.0608759 C419.233904,60.0608759 418.681666,59.5097439 418.681666,58.8627627 L418.681666,2.77668726 C418.681666,2.12970613 419.233904,1.57857406 419.882784,1.57857406 L425.382354,1.57857406 L461.118758,1.57857406 C461.839669,1.57857406 462.319876,2.05781934 462.319876,2.77668726 L462.319876,7.09109292 C462.319876,7.80996085 461.839669,8.28920613 461.118758,8.28920613 L426.583472,8.28920613 L426.583472,26.6011684 L457.275902,26.6011684 C457.996812,26.6011684 458.477019,27.0804137 458.477019,27.7759184 L458.477019,32.1142863 C458.477019,32.8331542 457.996812,33.3123995 457.275902,33.3123995 L426.583472,33.3123995 L426.583472,53.3502439 L462.079772,53.3502439 C462.800083,53.3502439 463.28029,53.8294892 463.28029,54.5483571"/><path id="Fill-18" fill="#FFF" d="M240.244974,116.129699 C240.244974,123.524453 233.427835,126.782123 225.80575,126.782123 C220.096689,126.782123 216.042542,124.963986 212.53523,122.842727 C212.09524,122.584533 211.958381,122.266434 212.170873,121.81235 L213.37079,119.190279 C213.567675,118.781722 213.962645,118.614585 214.418242,118.87218 C217.576203,120.690916 220.552286,122.539604 226.048255,122.539604 C231.392958,122.539604 235.006516,120.826901 235.006516,116.765897 C235.006516,106.840727 213.097072,112.386793 213.097072,99.2794344 C213.097072,93.4458212 217.910547,88.7180665 226.929434,88.7180665 C232.820374,88.7180665 236.236446,90.5362033 238.954418,92.0518165 C239.318775,92.2489061 239.531266,92.5819816 239.303768,93.0821939 L238.013212,95.8552269 C237.80072,96.2943354 237.481383,96.4309203 236.858914,96.036741 C235.067742,94.9003307 231.621057,92.8395759 226.898821,92.8395759 C220.627918,92.8395759 218.092425,95.8396514 218.092425,98.8858542 C218.092425,107.719543 240.244974,102.779722 240.244974,116.129699"/><path id="Fill-20" fill="#FFF" d="M284.562436,117.14498 C281.085738,124.08505 275.649795,126.782003 269.045148,126.782003 C259.327559,126.782003 250.156806,119.508857 250.156806,107.749975 C250.156806,95.991692 259.327559,88.7179467 269.045148,88.7179467 C275.649795,88.7179467 281.085738,91.4154986 284.562436,98.3555693 C284.805541,98.8551825 284.592449,99.219409 284.198079,99.4009231 L281.525727,100.688895 C281.130757,100.871008 280.72078,100.794928 280.463269,100.279739 C277.805924,95.0367958 273.73677,92.9610646 269.045148,92.9610646 C261.119331,92.9610646 255.395264,98.9917675 255.395264,107.749975 C255.395264,116.508782 261.119331,122.539484 269.045148,122.539484 C273.73677,122.539484 277.805924,120.463154 280.463269,115.22081 C280.72078,114.705022 281.130757,114.629541 281.525727,114.811654 L284.198079,116.099626 C284.592449,116.28114 284.805541,116.644767 284.562436,117.14498"/><path id="Fill-22" fill="#FFF" d="M329.709336,90.0212542 L329.709336,125.478816 C329.709336,125.887971 329.359986,126.236622 328.950009,126.236622 L325.47331,126.236622 C325.063334,126.236622 324.713983,125.887971 324.713983,125.478816 L324.713983,109.325853 L301.650842,109.325853 L301.650842,125.478816 C301.650842,125.887971 301.301491,126.236622 300.891515,126.236622 L297.414216,126.236622 C297.004239,126.236622 296.655489,125.887971 296.655489,125.478816 L296.655489,90.0212542 C296.655489,89.6120986 297.004239,89.2634476 297.414216,89.2634476 L300.891515,89.2634476 C301.301491,89.2634476 301.650842,89.6120986 301.650842,90.0212542 L301.650842,105.083334 L324.713983,105.083334 L324.713983,90.0212542 C324.713983,89.6120986 325.063334,89.2634476 325.47331,89.2634476 L328.950009,89.2634476 C329.359986,89.2634476 329.709336,89.6120986 329.709336,90.0212542"/><path id="Fill-24" fill="#FFF" d="M374.537499,107.750155 C374.537499,98.9919472 368.813431,92.9606453 360.887615,92.9606453 C352.961799,92.9606453 347.237731,98.9919472 347.237731,107.750155 C347.237731,116.508362 352.961799,122.539065 360.887615,122.539065 C368.813431,122.539065 374.537499,116.508362 374.537499,107.750155 M379.775957,107.750155 C379.775957,119.508438 370.605204,126.782183 360.887615,126.782183 C351.170026,126.782183 341.999874,119.508438 341.999874,107.750155 C341.999874,95.9912726 351.170026,88.7181264 360.887615,88.7181264 C370.605204,88.7181264 379.775957,95.9912726 379.775957,107.750155"/><path id="Fill-26" fill="#FFF" d="M422.226134,107.750155 C422.226134,98.9919472 416.502067,92.9606453 408.57625,92.9606453 C400.650434,92.9606453 394.926367,98.9919472 394.926367,107.750155 C394.926367,116.508362 400.650434,122.539065 408.57625,122.539065 C416.502067,122.539065 422.226134,116.508362 422.226134,107.750155 M427.464592,107.750155 C427.464592,119.508438 418.293839,126.782183 408.57625,126.782183 C398.859262,126.782183 389.688509,119.508438 389.688509,107.750155 C389.688509,95.9912726 398.859262,88.7181264 408.57625,88.7181264 C418.293839,88.7181264 427.464592,95.9912726 427.464592,107.750155"/><g id="Group-30" transform="translate(436.988357, 89.062344)"><mask id="mask-4" fill="#fff"><use xlink:href="#path-3"/></mask><path id="Fill-28" fill="#FFF" d="M26.5867798,33.6891462 L26.5867798,36.4166509 C26.5867798,36.8713349 26.2830489,37.1744575 25.8274525,37.1744575 L3.17428823,37.1744575 L1.12440466,37.1744575 C0.714427943,37.1744575 0.365077361,36.8258066 0.365077361,36.4166509 L0.365077361,0.959089623 C0.365077361,0.549933962 0.714427943,0.201283019 1.12440466,0.201283019 L4.60110323,0.201283019 C5.01107995,0.201283019 5.36043053,0.549933962 5.36043053,0.959089623 L5.36043053,32.9313396 L25.8274525,32.9313396 C26.2830489,32.9313396 26.5867798,33.2344623 26.5867798,33.6891462" mask="url(#mask-4)"/></g></g></g></g></svg>