<?xml version="1.0" encoding="UTF-8" standalone="no"?>
<svg
   xmlns:dc="http://purl.org/dc/elements/1.1/"
   xmlns:cc="http://creativecommons.org/ns#"
   xmlns:rdf="http://www.w3.org/1999/02/22-rdf-syntax-ns#"
   xmlns:svg="http://www.w3.org/2000/svg"
   xmlns="http://www.w3.org/2000/svg"
   xmlns:sodipodi="http://sodipodi.sourceforge.net/DTD/sodipodi-0.dtd"
   xmlns:inkscape="http://www.inkscape.org/namespaces/inkscape"
   fill="#000000"
   viewBox="0 0 50 50"
   width="50px"
   height="50px"
   version="1.1"
   id="svg4"
   sodipodi:docname="linkedin.svg"
   inkscape:version="0.92.5 (2060ec1f9f, 2020-04-08)">
  <metadata
     id="metadata10">
    <rdf:RDF>
      <cc:Work
         rdf:about="">
        <dc:format>image/svg+xml</dc:format>
        <dc:type
           rdf:resource="http://purl.org/dc/dcmitype/StillImage" />
      </cc:Work>
    </rdf:RDF>
  </metadata>
  <defs
     id="defs8" />
  <sodipodi:namedview
     pagecolor="#ffffff"
     bordercolor="#666666"
     borderopacity="1"
     objecttolerance="10"
     gridtolerance="10"
     guidetolerance="10"
     inkscape:pageopacity="0"
     inkscape:pageshadow="2"
     inkscape:window-width="1920"
     inkscape:window-height="1026"
     id="namedview6"
     showgrid="false"
     inkscape:zoom="13.350176"
     inkscape:cx="22.317779"
     inkscape:cy="22.383811"
     inkscape:window-x="0"
     inkscape:window-y="24"
     inkscape:window-maximized="1"
     inkscape:current-layer="svg4" />
  <path
     d="m 9.2247161,4.599243 c -2.7495161,0 -5,2.2504839 -5,5 v 32 c 0,2.749516 2.2504839,5 5,5 H 41.224716 c 2.749516,0 5,-2.250484 5,-5 v -32 c 0,-2.7495161 -2.250484,-5 -5,-5 z m 0,2 H 41.224716 c 1.668484,0 3,1.3315161 3,3 v 32 c 0,1.668484 -1.331516,3 -3,3 H 9.2247161 c -1.6684839,0 -3,-1.331516 -3,-3 v -32 c 0,-1.6684839 1.3315161,-3 3,-3 z m 4.9999999,5.011719 c -1.095221,0 -2.080781,0.32736 -2.810547,0.941406 -0.729766,0.614046 -1.177734,1.531386 -1.177734,2.513672 0,1.86718 1.619566,3.322812 3.679687,3.466797 a 0.98809878,0.98809878 0 0 0 0.0039,0.002 0.98809878,0.98809878 0 0 0 0.304688,0.05273 c 2.27301,0 3.988281,-1.592198 3.988281,-3.521484 a 0.98809878,0.98809878 0 0 0 -0.002,-0.05273 c -0.101751,-1.900231 -1.795885,-3.402343 -3.986328,-3.402343 z m 0,1.976562 c 1.392231,0 1.94197,0.621757 2.001953,1.503907 -0.01215,0.856246 -0.541862,1.519531 -2.001953,1.519531 -1.385406,0 -2.011719,-0.709494 -2.011719,-1.544922 0,-0.417714 0.152422,-0.732499 0.472657,-1.001953 0.320232,-0.269454 0.834283,-0.476563 1.539062,-0.476563 z m -3,6.011719 a 1.0001,1.0001 0 0 0 -1,1 v 19 a 1.0001,1.0001 0 0 0 1,1 h 6 a 1.0001,1.0001 0 0 0 1,-1 V 33.734009 20.599243 a 1.0001,1.0001 0 0 0 -1,-1 z m 9,0 a 1.0001,1.0001 0 0 0 -1,1 v 19 a 1.0001,1.0001 0 0 0 1,1 h 6 a 1.0001,1.0001 0 0 0 1,-1 v -10 c 0,-0.829667 0.226394,-1.654965 0.625,-2.195312 0.398606,-0.540349 0.901466,-0.864631 1.857422,-0.847657 0.985744,0.01695 1.507577,0.354638 1.902344,0.884766 0.394766,0.530127 0.615234,1.32487 0.615234,2.158203 v 10 a 1.0001,1.0001 0 0 0 1,1 h 6 a 1.0001,1.0001 0 0 0 1,-1 V 28.860962 c 0,-2.961538 -0.877212,-5.307389 -2.380859,-6.894531 -1.503648,-1.587144 -3.594969,-2.367188 -5.806641,-2.367188 -2.102017,0 -3.701647,0.704889 -4.8125,1.423828 v -0.423828 a 1.0001,1.0001 0 0 0 -1,-1 z m -8,2 h 4 v 12.134766 4.865234 h -4 z m 9,0 h 4 v 1.560547 a 1.0001,1.0001 0 0 0 1.798828,0.601562 c 0,0 1.570366,-2.162109 5.013672,-2.162109 1.753328,0 3.256866,0.582581 4.355469,1.742188 1.098603,1.159606 1.832031,2.946069 1.832031,5.519531 v 9.738281 h -4 v -9 c 0,-1.166667 -0.279532,-2.372893 -1.009766,-3.353516 -0.730233,-0.980622 -1.9584,-1.663408 -3.472656,-1.689453 -1.522044,-0.02703 -2.770059,0.669957 -3.501953,1.66211 -0.731894,0.992152 -1.015625,2.210526 -1.015625,3.380859 v 9 h -4 z"
     id="path2"
     inkscape:connector-curvature="0"
     style="fill:#ffffff" />
</svg>
